<?xml version="1.0" encoding="utf-8"?>
<!-- Generator: Adobe Illustrator 15.1.1, SVG Export Plug-In  -->
<!DOCTYPE svg PUBLIC "-//W3C//DTD SVG 1.1//EN" "http://www.w3.org/Graphics/SVG/1.1/DTD/svg11.dtd" [
	<!ENTITY ns_flows "http://ns.adobe.com/Flows/1.0/">
]>
<svg version="1.1"
	 xmlns="http://www.w3.org/2000/svg" xmlns:xlink="http://www.w3.org/1999/xlink" xmlns:a="http://ns.adobe.com/AdobeSVGViewerExtensions/3.0/"
	 x="0px" y="0px" width="640px" height="512px" viewBox="-223.641 -159.711 640 512"
	 enable-background="new -223.641 -159.711 640 512" xml:space="preserve">
<defs>
</defs>
<path fill="#FFFFFF" d="M118.782,95.812l69.185-68.432c6.286-6.207,6.336-16.337,0.127-22.622c-6.209-6.29-16.353-6.339-22.624-0.13
	l-69.28,68.513L27.968,4.708C21.71-1.547,11.598-1.581,5.343,4.677c-6.257,6.239-6.272,16.366-0.031,22.624l68.127,68.335
	L4.749,163.587c-6.286,6.227-6.335,16.336-0.127,22.626c3.136,3.167,7.249,4.75,11.377,4.75c4.063,0,8.128-1.551,11.247-4.625
	l68.785-68.029l69.343,69.568c3.12,3.135,7.217,4.701,11.328,4.701c4.097,0,8.176-1.566,11.296-4.67
	c6.255-6.24,6.272-16.354,0.032-22.625L118.782,95.812L118.782,95.812z"/>
</svg>
